<svg xmlns="http://www.w3.org/2000/svg" width="900" height="300" viewBox="0 0 900 300">
  <defs>
    <linearGradient id="bg" x1="0%" y1="0%" x2="100%" y2="100%">
      <stop offset="0%" style="stop-color:#2c2e31"/>
      <stop offset="100%" style="stop-color:#323437"/>
    </linearGradient>
    <linearGradient id="accent" x1="0%" y1="0%" x2="100%" y2="0%">
      <stop offset="0%" style="stop-color:#60A5FA"/>
      <stop offset="100%" style="stop-color:#93c5fd"/>
    </linearGradient>
  </defs>

  <!-- Background -->
  <rect width="900" height="300" rx="16" fill="url(#bg)"/>

  <!-- Subtle grid pattern -->
  <g opacity="0.03">
    <line x1="0" y1="60" x2="900" y2="60" stroke="#fff" stroke-width="1"/>
    <line x1="0" y1="120" x2="900" y2="120" stroke="#fff" stroke-width="1"/>
    <line x1="0" y1="180" x2="900" y2="180" stroke="#fff" stroke-width="1"/>
    <line x1="0" y1="240" x2="900" y2="240" stroke="#fff" stroke-width="1"/>
    <line x1="150" y1="0" x2="150" y2="300" stroke="#fff" stroke-width="1"/>
    <line x1="300" y1="0" x2="300" y2="300" stroke="#fff" stroke-width="1"/>
    <line x1="450" y1="0" x2="450" y2="300" stroke="#fff" stroke-width="1"/>
    <line x1="600" y1="0" x2="600" y2="300" stroke="#fff" stroke-width="1"/>
    <line x1="750" y1="0" x2="750" y2="300" stroke="#fff" stroke-width="1"/>
  </g>

  <!-- Decorative scrambled letters (background) -->
  <g opacity="0.06" fill="#60A5FA" font-family="'Roboto Mono', 'SF Mono', 'Consolas', monospace" font-size="28" font-weight="600">
    <text x="40" y="50">w o r d</text>
    <text x="680" y="80">p l a y</text>
    <text x="60" y="270">t y p e</text>
    <text x="720" y="250">a n a r o o</text>
    <text x="350" y="40">s c r a m b l e</text>
    <text x="380" y="285">a n a g r a m</text>
  </g>

  <!-- Logo circle -->
  <g transform="translate(280, 67) scale(0.16)" opacity="1">
    <circle cx="308" cy="250" r="220" fill="none" stroke="#60A5FA" stroke-width="12" opacity="0.2"/>
    <path fill="#60A5FA" d="M285.3,455.9c-10.7-2-21.1-3.5-31.2-6.1c-25.9-6.6-49.6-18.1-70.8-34.3c-8.8-6.7-17.2-14-24.9-21.9c-19.6-20.2-34.5-43.5-44.4-69.9c-6.4-17-10.4-34.6-12.2-52.8c-2.8-28.6-0.1-56.5,8.7-80.8c7.8-24.4,20.1-46.6,36.3-66.7c21.2-26.5,47.6-45.9,78.5-59.4c18-6.9,36.8-12.3,56.5-14.1c9.2-0.8,18.4-2,27.6-1.8c19.4,0.3,38.5,3.1,57.1,7.8c19.7,6,37.9,14.8,55.1,26c27,17.7,48.1,41,64.3,68.8c12.7,21.6,21.1,45,24.6,69.6c2.3,16.1,3.3,33.8,2,50c-3.1,40.4-17,77.1-41.9,109.5c-18.3,23.9-40.7,42.6-67.1,55.8c-21.2,11.4-43.7,18.8-67.4,22c-12.4,1.7-25.1,1.7-37.5,2.1c-4.3,0.2-8.5-0.6-12.8-0.9z"/>
    <path fill="#020201" d="M258,139.4c4-5.1,6.9-5.5,12.1-2.2c9.3,5.8,13.5,14.9,15.7,25.1c2,9.3,3.2,18.7,5.3,27.9c2.1,9.3,6.2,18,14.9,22.7c5.1,2.7,11.4,3.3,17,5.1c11.5,3.7,23.3,7,34.4,11.6c21.5,9,32,26.3,35.4,48.8c1.7,11.1,4.2,22.2,7.1,33.1c2.6,9.9,7.8,18.7,14.7,26.4c2.9,3.3,5,7,2,11.2c-2.8,4.1-6.8,4.1-11.1,2.5c-18.5-7.2-28.9-21-33-39.6c-5.2,2.8-10.6,5.8-16.2,8.6c-3.5,1.8-4.3,4.5-4.3,8.2c0,10.8-4.1,19.7-14.6,23.9c-4,1.6-8.8,1.8-13.2,1.8c-11,0-22,0.5-33-0.3c-4.6-0.1-9.3-0.1-11.2-5.5c-1.5-4.2,0.8-8.8,5.8-12.2c6.6-4.5,14.1-5.6,21.9-5.3c4.6,0.2,9.2,0,14.1,0c0-3.5,0.5-6.6-0.2-9.4c-0.5-2.1-2-4.2-3.7-5.7c-3.4-3.3-7.7-5.8-10.8-9.4c-5-6.1-9.4-12.7-13.9-19.2c-2.2-3.1-4-6.4-6.2-10c-3.6,1.8-4.6,4.7-4.5,8.5c0.1,3.6,0.2,7.5-1,10.7c-2.9,7.9-12,9.3-17.7,3.1c-6.6-7-7.8-21-2.7-29.4c2.4-3.8,4.7-7.7,7.1-11.5c4.3-6.8,3.6-13.6,0.2-20.4c-3.7-7.4-7-15.1-11.3-22.1c-1.2-2-5.3-3-8.1-2.9c-5.5,0.1-10.9,1.5-16.3,2c-6.8,0.6-13.6,0.9-17.6-5.9c-4.3-7.5-3.5-15.2,0.7-22.4c6.8-11.9,17.5-19.4,29.7-24.9c1.5-0.7,3.1-1.3,4.7-1.6c5.2-1.1,6.9-4.2,6.3-9.4c-0.4-3.4,0.7-6.9,1.2-10.7z"/>
    <circle cx="249" cy="184" r="6" fill="#DAC351"/>
  </g>

  <!-- App name -->
  <text x="370" y="128" font-family="'Roboto Mono', 'SF Mono', 'Consolas', monospace" font-size="64" font-weight="700" fill="url(#accent)" letter-spacing="-1">anaroo</text>

  <!-- Tagline -->
  <text x="290" y="165" font-family="'Roboto Mono', 'SF Mono', 'Consolas', monospace" font-size="18" fill="#a7a7a7" letter-spacing="0.5">fast-paced anagram word game</text>

  <!-- Demo tiles -->
  <g transform="translate(173, 185)">
    <!-- Scrambled letter tiles -->
    <rect x="0" y="0" width="38" height="44" rx="6" fill="#3a3c3f"/>
    <text x="19" y="30" font-family="'Roboto Mono', monospace" font-size="20" font-weight="600" fill="#ebebe8" text-anchor="middle">o</text>

    <rect x="44" y="0" width="38" height="44" rx="6" fill="#3a3c3f"/>
    <text x="63" y="30" font-family="'Roboto Mono', monospace" font-size="20" font-weight="600" fill="#ebebe8" text-anchor="middle">r</text>

    <rect x="88" y="0" width="38" height="44" rx="6" fill="#3a3c3f"/>
    <text x="107" y="30" font-family="'Roboto Mono', monospace" font-size="20" font-weight="600" fill="#ebebe8" text-anchor="middle">a</text>

    <rect x="132" y="0" width="38" height="44" rx="6" fill="#3a3c3f"/>
    <text x="151" y="30" font-family="'Roboto Mono', monospace" font-size="20" font-weight="600" fill="#ebebe8" text-anchor="middle">o</text>

    <rect x="176" y="0" width="38" height="44" rx="6" fill="#3a3c3f"/>
    <text x="195" y="30" font-family="'Roboto Mono', monospace" font-size="20" font-weight="600" fill="#ebebe8" text-anchor="middle">n</text>

    <rect x="220" y="0" width="38" height="44" rx="6" fill="#3a3c3f"/>
    <text x="239" y="30" font-family="'Roboto Mono', monospace" font-size="20" font-weight="600" fill="#ebebe8" text-anchor="middle">a</text>

    <!-- Arrow -->
    <text x="278" y="30" font-family="'Roboto Mono', monospace" font-size="20" fill="#60A5FA" text-anchor="middle">&#x2192;</text>

    <!-- Solved tiles -->
    <rect x="298" y="0" width="38" height="44" rx="6" fill="none" stroke="#60A5FA" stroke-width="2"/>
    <text x="317" y="30" font-family="'Roboto Mono', monospace" font-size="20" font-weight="700" fill="#60A5FA" text-anchor="middle">a</text>

    <rect x="342" y="0" width="38" height="44" rx="6" fill="none" stroke="#60A5FA" stroke-width="2"/>
    <text x="361" y="30" font-family="'Roboto Mono', monospace" font-size="20" font-weight="700" fill="#60A5FA" text-anchor="middle">n</text>

    <rect x="386" y="0" width="38" height="44" rx="6" fill="none" stroke="#60A5FA" stroke-width="2"/>
    <text x="405" y="30" font-family="'Roboto Mono', monospace" font-size="20" font-weight="700" fill="#60A5FA" text-anchor="middle">a</text>

    <rect x="430" y="0" width="38" height="44" rx="6" fill="none" stroke="#60A5FA" stroke-width="2"/>
    <text x="449" y="30" font-family="'Roboto Mono', monospace" font-size="20" font-weight="700" fill="#60A5FA" text-anchor="middle">r</text>

    <rect x="474" y="0" width="38" height="44" rx="6" fill="none" stroke="#60A5FA" stroke-width="2"/>
    <text x="493" y="30" font-family="'Roboto Mono', monospace" font-size="20" font-weight="700" fill="#60A5FA" text-anchor="middle">o</text>

    <rect x="518" y="0" width="38" height="44" rx="6" fill="none" stroke="#60A5FA" stroke-width="2"/>
    <text x="537" y="30" font-family="'Roboto Mono', monospace" font-size="20" font-weight="700" fill="#60A5FA" text-anchor="middle">o</text>
  </g>

  <!-- Bottom accent line -->
  <rect x="390" y="248" width="120" height="3" rx="1.5" fill="url(#accent)" opacity="0.6"/>
</svg>
